# 3ds Max Wavefront OBJ Exporter v0.97b - (c)2007 guruware
# File Created: 14.12.2020 22:40:06

mtllib Beam.mtl

#
# object Beam
#

v  -6.6899 0.4481 1.8289
v  -6.6899 0.3900 1.8797
v  6.6128 0.3900 1.8797
v  6.6128 0.4481 1.8289
v  -6.6899 0.5786 1.6600
v  6.6128 0.5786 1.6600
v  -6.6899 0.6950 1.4501
v  6.6128 0.6950 1.4501
v  -6.6899 0.7945 1.2043
v  6.6128 0.7945 1.2043
v  -6.6899 0.8745 0.9286
v  6.6128 0.8745 0.9286
v  6.6128 0.9331 0.6300
v  -6.6899 0.9330 0.6300
v  -6.6899 0.9688 0.3157
v  6.6128 0.9688 0.3157
v  -6.6899 0.8745 -0.9419
v  -6.6899 0.9330 -0.6432
v  6.6128 0.9331 -0.6432
v  6.6128 0.8745 -0.9419
v  -6.6899 0.7945 -1.2175
v  6.6128 0.7945 -1.2175
v  6.6128 0.6950 -1.4633
v  -6.6899 0.6950 -1.4633
v  -6.6899 0.5786 -1.6733
v  6.6128 0.5786 -1.6733
v  6.6128 0.4481 -1.8422
v  -6.6899 0.4481 -1.8422
v  6.6128 0.3626 -1.9170
v  -6.6899 0.3626 -1.9170
v  -6.6899 -0.4378 -1.8422
v  -6.6899 -0.3523 -1.9170
v  6.6128 -0.3523 -1.9170
v  6.6128 -0.4378 -1.8422
v  6.6128 -0.5683 -1.6733
v  -6.6899 -0.5683 -1.6733
v  -6.6899 -0.6848 -1.4633
v  6.6128 -0.6848 -1.4633
v  -6.6899 -0.7842 -1.2175
v  6.6128 -0.7842 -1.2175
v  -6.6899 -0.8642 -0.9419
v  6.6128 -0.8642 -0.9419
v  6.6128 -0.9228 -0.6432
v  -6.6899 -0.9228 -0.6432
v  -6.6899 -0.9228 0.6300
v  -6.6899 -0.9585 0.3157
v  6.6128 -0.9585 0.3157
v  6.6128 -0.9228 0.6300
v  -6.6899 -0.8642 0.9286
v  6.6128 -0.8642 0.9286
v  6.6128 -0.7842 1.2043
v  -6.6899 -0.7842 1.2043
v  -6.6899 -0.6848 1.4501
v  6.6128 -0.6847 1.4501
v  6.6128 -0.5683 1.6600
v  -6.6899 -0.5683 1.6600
v  -6.6899 -0.4378 1.8289
v  6.6128 -0.4378 1.8289
v  -6.6899 -0.3797 1.8797
v  6.6128 -0.3797 1.8797
v  -6.6899 -0.2446 1.8797
v  6.6128 -0.2446 1.8797
v  -6.6899 0.2050 1.8797
v  6.6128 0.2050 1.8797
v  -6.6899 0.2050 1.5611
v  6.6128 0.2050 1.5611
v  -6.6899 0.1855 1.5140
v  6.6128 0.1855 1.5140
v  -6.6899 0.1384 1.4945
v  6.6128 0.1384 1.4945
v  -6.6899 -0.1780 1.4945
v  6.6128 -0.1780 1.4945
v  -6.6899 -0.2251 1.5140
v  6.6128 -0.2251 1.5140
v  -6.6899 -0.2446 1.5611
v  6.6128 -0.2446 1.5611
v  6.6128 -0.2446 -1.9170
v  -6.6899 -0.2446 -1.9170
v  6.6128 0.2050 -1.9170
v  -6.6899 0.2050 -1.9170
v  6.6128 0.2050 -1.6008
v  -6.6899 0.2050 -1.6008
v  6.6128 0.1855 -1.5537
v  -6.6899 0.1855 -1.5537
v  6.6128 0.1384 -1.5342
v  -6.6899 0.1384 -1.5342
v  6.6128 -0.1780 -1.5342
v  -6.6899 -0.1780 -1.5342
v  6.6128 -0.2251 -1.5537
v  -6.6899 -0.2251 -1.5537
v  6.6128 -0.2446 -1.6008
v  -6.6899 -0.2446 -1.6008
v  -6.6899 0.9546 -0.4533
v  6.6128 0.9546 -0.4533
v  -6.6899 0.9689 0.3129
v  6.6128 0.9689 0.3129
v  6.6128 0.9004 0.3129
v  -6.6899 0.9004 0.3129
v  6.6128 0.8533 0.2934
v  -6.6899 0.8533 0.2934
v  6.6128 0.8338 0.2463
v  -6.6899 0.8338 0.2463
v  6.6128 0.8338 -0.3867
v  -6.6899 0.8338 -0.3867
v  6.6128 0.8533 -0.4338
v  -6.6899 0.8533 -0.4338
v  6.6128 0.9004 -0.4533
v  -6.6899 0.9004 -0.4533
v  -6.6899 -0.9444 -0.4533
v  6.6128 -0.9444 -0.4533
v  6.6128 -0.9586 0.3129
v  -6.6899 -0.9586 0.3129
v  6.6128 -0.8870 -0.4533
v  -6.6899 -0.8870 -0.4533
v  6.6128 -0.8399 -0.4338
v  -6.6899 -0.8399 -0.4338
v  6.6128 -0.8204 -0.3867
v  -6.6899 -0.8204 -0.3867
v  6.6128 -0.8204 0.2463
v  -6.6899 -0.8204 0.2463
v  6.6128 -0.8399 0.2934
v  -6.6899 -0.8399 0.2934
v  6.6128 -0.8870 0.3129
v  -6.6899 -0.8870 0.3129
# 124 vertices

vn -0.0000 0.7282 0.6853
vn -0.0000 0.6583 0.7527
vn -0.0000 0.8353 0.5498
vn -0.0000 0.9025 0.4308
vn -0.0000 0.9449 0.3273
vn -0.0000 0.9718 0.2358
vn -0.0000 0.9882 0.1529
vn -0.0000 0.9972 0.0752
vn -0.0000 0.9718 -0.2358
vn -0.0000 0.9882 -0.1529
vn -0.0000 0.9449 -0.3273
vn -0.0000 0.9025 -0.4308
vn -0.0000 0.8353 -0.5498
vn -0.0000 0.7282 -0.6853
vn 0.0000 0.6583 -0.7527
vn 0.0000 -0.7282 -0.6853
vn 0.0000 -0.6583 -0.7527
vn 0.0000 -0.8353 -0.5498
vn 0.0000 -0.9025 -0.4308
vn 0.0000 -0.9449 -0.3273
vn 0.0000 -0.9718 -0.2358
vn 0.0000 -0.9882 -0.1529
vn 0.0000 -0.9882 0.1529
vn 0.0000 -0.9972 0.0752
vn 0.0000 -0.9718 0.2358
vn 0.0000 -0.9449 0.3273
vn 0.0000 -0.9025 0.4308
vn 0.0000 -0.8353 0.5498
vn 0.0000 -0.7282 0.6853
vn -0.0000 -0.6583 0.7527
vn -0.0000 0.0000 1.0000
vn 0.0000 -1.0000 -0.0000
vn 0.0000 -0.9808 0.1951
vn 0.0000 -0.7071 0.7071
vn -0.0000 -0.1951 0.9808
vn -0.0000 0.1951 0.9808
vn -0.0000 0.7071 0.7071
vn -0.0000 0.9808 0.1951
vn -0.0000 1.0000 -0.0000
vn 0.0000 0.0000 -1.0000
vn 0.0000 -1.0000 0.0000
vn 0.0000 -0.9808 -0.1951
vn 0.0000 -0.7071 -0.7071
vn 0.0000 -0.1951 -0.9808
vn 0.0000 0.1951 -0.9808
vn -0.0000 0.7071 -0.7071
vn -0.0000 0.9808 -0.1951
vn -0.0000 0.9936 -0.1130
vn -0.0000 0.9993 0.0372
vn 0.0000 0.7071 -0.7071
vn 0.0000 -0.9936 -0.1130
vn 0.0000 -0.9993 0.0372
vn -0.0000 -0.7071 0.7071
vn -1.0000 0.0000 -0.0000
vn 1.0000 0.0000 -0.0000
vn 1.0000 -0.0000 0.0000
vn 1.0000 0.0000 0.0000
# 57 vertex normals

vt 0.8361 0.0005 0.0000
vt 0.8403 0.0005 0.0000
vt 0.8403 0.9689 0.0000
vt 0.8361 0.9689 0.0000
vt 0.6756 0.0005 0.0000
vt 0.6879 0.0005 0.0000
vt 0.6879 0.9689 0.0000
vt 0.6756 0.9689 0.0000
vt 0.6604 0.0005 0.0000
vt 0.6604 0.9689 0.0000
vt 0.6425 0.0005 0.0000
vt 0.6425 0.9689 0.0000
vt 0.6224 0.0005 0.0000
vt 0.6224 0.9689 0.0000
vt 0.6007 0.9689 0.0000
vt 0.6007 0.0005 0.0000
vt 0.5778 0.0005 0.0000
vt 0.5778 0.9689 0.0000
vt 0.3038 0.9689 0.0000
vt 0.2821 0.9689 0.0000
vt 0.2821 0.0005 0.0000
vt 0.3038 0.0005 0.0000
vt 0.3239 0.9689 0.0000
vt 0.3239 0.0005 0.0000
vt 0.3418 0.0005 0.0000
vt 0.3418 0.9689 0.0000
vt 0.3571 0.9689 0.0000
vt 0.3571 0.0005 0.0000
vt 0.3694 0.0005 0.0000
vt 0.3694 0.9689 0.0000
vt 0.1982 0.0005 0.0000
vt 0.1982 0.9689 0.0000
vt 0.1920 0.9689 0.0000
vt 0.1920 0.0005 0.0000
vt 0.1344 0.0005 0.0000
vt 0.1406 0.0005 0.0000
vt 0.1406 0.9689 0.0000
vt 0.1344 0.9689 0.0000
vt 0.0005 0.9689 0.0000
vt 0.0005 0.0005 0.0000
vt 0.0128 0.0005 0.0000
vt 0.0128 0.9689 0.0000
vt 0.0281 0.9689 0.0000
vt 0.0281 0.0005 0.0000
vt 0.0460 0.9689 0.0000
vt 0.0460 0.0005 0.0000
vt 0.0660 0.9689 0.0000
vt 0.0660 0.0005 0.0000
vt 0.0878 0.0005 0.0000
vt 0.0878 0.9689 0.0000
vt 0.7803 0.0005 0.0000
vt 0.8031 0.0005 0.0000
vt 0.8031 0.9689 0.0000
vt 0.7803 0.9689 0.0000
vt 0.7585 0.0005 0.0000
vt 0.7585 0.9689 0.0000
vt 0.7385 0.9689 0.0000
vt 0.7385 0.0005 0.0000
vt 0.7206 0.0005 0.0000
vt 0.7206 0.9689 0.0000
vt 0.7053 0.9689 0.0000
vt 0.7053 0.0005 0.0000
vt 0.6930 0.0005 0.0000
vt 0.6930 0.9689 0.0000
vt 0.2596 0.0005 0.0000
vt 0.2639 0.0005 0.0000
vt 0.2639 0.9689 0.0000
vt 0.2596 0.9689 0.0000
vt 0.2498 0.0005 0.0000
vt 0.2498 0.9689 0.0000
vt 0.8538 0.0005 0.0000
vt 0.8538 0.9689 0.0000
vt 0.8084 0.0005 0.0000
vt 0.8316 0.0005 0.0000
vt 0.8316 0.9689 0.0000
vt 0.8084 0.9689 0.0000
vt 0.8350 0.0005 0.0000
vt 0.8350 0.9689 0.0000
vt 0.4114 0.0005 0.0000
vt 0.4148 0.0005 0.0000
vt 0.4148 0.9689 0.0000
vt 0.4114 0.9689 0.0000
vt 0.4378 0.0005 0.0000
vt 0.4378 0.9689 0.0000
vt 0.4413 0.0005 0.0000
vt 0.4413 0.9689 0.0000
vt 0.3837 0.9689 0.0000
vt 0.3837 0.0005 0.0000
vt 0.3871 0.0005 0.0000
vt 0.3871 0.9689 0.0000
vt 0.4103 0.9689 0.0000
vt 0.4103 0.0005 0.0000
vt 0.1484 0.9689 0.0000
vt 0.1484 0.0005 0.0000
vt 0.1805 0.9689 0.0000
vt 0.1805 0.0005 0.0000
vt 0.1331 0.0005 0.0000
vt 0.1331 0.9689 0.0000
vt 0.1101 0.9689 0.0000
vt 0.1101 0.0005 0.0000
vt 0.1067 0.9689 0.0000
vt 0.1067 0.0005 0.0000
vt 0.2335 0.9689 0.0000
vt 0.2301 0.9689 0.0000
vt 0.2301 0.0005 0.0000
vt 0.2335 0.0005 0.0000
vt 0.2071 0.9689 0.0000
vt 0.2071 0.0005 0.0000
vt 0.2036 0.9689 0.0000
vt 0.2036 0.0005 0.0000
vt 0.1528 0.9689 0.0000
vt 0.1528 0.0005 0.0000
vt 0.1563 0.0005 0.0000
vt 0.1563 0.9689 0.0000
vt 0.1793 0.0005 0.0000
vt 0.1793 0.9689 0.0000
vt 0.2683 0.9689 0.0000
vt 0.2683 0.0005 0.0000
vt 0.5776 0.0005 0.0000
vt 0.5776 0.9689 0.0000
vt 0.5545 0.9689 0.0000
vt 0.5545 0.0005 0.0000
vt 0.5595 0.0005 0.0000
vt 0.5595 0.9689 0.0000
vt 0.5629 0.0005 0.0000
vt 0.5629 0.9689 0.0000
vt 0.4966 0.0005 0.0000
vt 0.4966 0.9689 0.0000
vt 0.4932 0.9689 0.0000
vt 0.4932 0.0005 0.0000
vt 0.4471 0.9689 0.0000
vt 0.4471 0.0005 0.0000
vt 0.4437 0.9689 0.0000
vt 0.4437 0.0005 0.0000
vt 0.5757 0.9689 0.0000
vt 0.5723 0.9689 0.0000
vt 0.5723 0.0005 0.0000
vt 0.5757 0.0005 0.0000
vt 0.5683 0.9689 0.0000
vt 0.5683 0.0005 0.0000
vt 0.1016 0.9689 0.0000
vt 0.1016 0.0005 0.0000
vt 0.8034 0.9689 0.0000
vt 0.8034 0.0005 0.0000
vt 0.3820 0.0005 0.0000
vt 0.3820 0.9689 0.0000
vt 0.3779 0.9689 0.0000
vt 0.3779 0.0005 0.0000
vt 0.3744 0.9689 0.0000
vt 0.3744 0.0005 0.0000
vt 0.5520 0.0005 0.0000
vt 0.5520 0.9689 0.0000
vt 0.5486 0.9689 0.0000
vt 0.5486 0.0005 0.0000
vt 0.5025 0.9689 0.0000
vt 0.5025 0.0005 0.0000
vt 0.4991 0.9689 0.0000
vt 0.4991 0.0005 0.0000
vt 0.2446 0.9689 0.0000
vt 0.2412 0.9689 0.0000
vt 0.2412 0.0005 0.0000
vt 0.2446 0.0005 0.0000
vt 0.2359 0.9689 0.0000
vt 0.2359 0.0005 0.0000
vt 0.9148 0.9462 0.0000
vt 0.9148 0.9694 0.0000
vt 0.9013 0.9694 0.0000
vt 0.8971 0.9657 0.0000
vt 0.8876 0.9534 0.0000
vt 0.8791 0.9381 0.0000
vt 0.9162 0.9427 0.0000
vt 0.8719 0.9202 0.0000
vt 0.8661 0.9001 0.0000
vt 0.8592 0.8555 0.0000
vt 0.8592 0.8553 0.0000
vt 0.8642 0.8553 0.0000
vt 0.8618 0.8784 0.0000
vt 0.8676 0.8539 0.0000
vt 0.8690 0.8505 0.0000
vt 0.9196 0.9413 0.0000
vt 0.8690 0.8044 0.0000
vt 0.9427 0.9413 0.0000
vt 0.8642 0.7995 0.0000
vt 0.8602 0.7995 0.0000
vt 0.8618 0.7857 0.0000
vt 0.8676 0.8010 0.0000
vt 0.8661 0.7640 0.0000
vt 0.8719 0.7439 0.0000
vt 0.9033 0.6930 0.0000
vt 0.9148 0.6930 0.0000
vt 0.9148 0.7160 0.0000
vt 0.8971 0.6984 0.0000
vt 0.8876 0.7107 0.0000
vt 0.8791 0.7260 0.0000
vt 0.9162 0.7194 0.0000
vt 0.9196 0.7209 0.0000
vt 0.9427 0.7209 0.0000
vt 0.9461 0.7194 0.0000
vt 0.9475 0.7160 0.0000
vt 0.9475 0.6930 0.0000
vt 0.9554 0.6930 0.0000
vt 0.9616 0.6984 0.0000
vt 0.9711 0.7107 0.0000
vt 0.9796 0.7260 0.0000
vt 0.9868 0.7439 0.0000
vt 0.9926 0.7640 0.0000
vt 0.9969 0.7857 0.0000
vt 0.9985 0.7995 0.0000
vt 0.9943 0.7995 0.0000
vt 0.9909 0.8010 0.0000
vt 0.9894 0.8044 0.0000
vt 0.9894 0.8505 0.0000
vt 0.9461 0.9427 0.0000
vt 0.9909 0.8539 0.0000
vt 0.9943 0.8553 0.0000
vt 0.9995 0.8553 0.0000
vt 0.9995 0.8555 0.0000
vt 0.9969 0.8784 0.0000
vt 0.9926 0.9001 0.0000
vt 0.9868 0.9202 0.0000
vt 0.9796 0.9381 0.0000
vt 0.9475 0.9462 0.0000
vt 0.9711 0.9534 0.0000
vt 0.9616 0.9657 0.0000
vt 0.9574 0.9694 0.0000
vt 0.9475 0.9694 0.0000
vt 0.9995 0.1144 0.0000
vt 0.9995 0.1146 0.0000
vt 0.9943 0.1146 0.0000
vt 0.9969 0.0915 0.0000
vt 0.9909 0.1160 0.0000
vt 0.9926 0.0697 0.0000
vt 0.9943 0.1703 0.0000
vt 0.9985 0.1703 0.0000
vt 0.9969 0.1842 0.0000
vt 0.9909 0.1689 0.0000
vt 0.9926 0.2059 0.0000
vt 0.9554 0.2769 0.0000
vt 0.9475 0.2769 0.0000
vt 0.9475 0.2539 0.0000
vt 0.9616 0.2714 0.0000
vt 0.9711 0.2591 0.0000
vt 0.9796 0.2439 0.0000
vt 0.9461 0.2504 0.0000
vt 0.9868 0.2260 0.0000
vt 0.9148 0.2539 0.0000
vt 0.9148 0.2769 0.0000
vt 0.9033 0.2769 0.0000
vt 0.8971 0.2714 0.0000
vt 0.8876 0.2591 0.0000
vt 0.8791 0.2439 0.0000
vt 0.9162 0.2504 0.0000
vt 0.8719 0.2260 0.0000
vt 0.8618 0.1842 0.0000
vt 0.8602 0.1703 0.0000
vt 0.8642 0.1703 0.0000
vt 0.8676 0.1689 0.0000
vt 0.8661 0.2059 0.0000
vt 0.8690 0.1655 0.0000
vt 0.9196 0.2490 0.0000
vt 0.9427 0.2490 0.0000
vt 0.9894 0.1655 0.0000
vt 0.9894 0.1194 0.0000
vt 0.8642 0.1146 0.0000
vt 0.8592 0.1146 0.0000
vt 0.8592 0.1144 0.0000
vt 0.8618 0.0915 0.0000
vt 0.8676 0.1160 0.0000
vt 0.8661 0.0697 0.0000
vt 0.9013 0.0005 0.0000
vt 0.9148 0.0005 0.0000
vt 0.9148 0.0237 0.0000
vt 0.8971 0.0042 0.0000
vt 0.8876 0.0165 0.0000
vt 0.8791 0.0318 0.0000
vt 0.9162 0.0271 0.0000
vt 0.8719 0.0497 0.0000
vt 0.8690 0.1194 0.0000
vt 0.9196 0.0285 0.0000
vt 0.9427 0.0285 0.0000
vt 0.9461 0.0271 0.0000
vt 0.9868 0.0497 0.0000
vt 0.9796 0.0318 0.0000
vt 0.9475 0.0237 0.0000
vt 0.9711 0.0165 0.0000
vt 0.9616 0.0042 0.0000
vt 0.9574 0.0005 0.0000
vt 0.9475 0.0005 0.0000
# 288 texture coords

o Beam
g Beam
usemtl wire_061135006
s 8
f 1/1/1 2/2/2 3/3/2 
f 3/3/2 4/4/1 1/1/1 
f 5/5/3 1/6/1 4/7/1 
f 4/7/1 6/8/3 5/5/3 
f 7/9/4 5/5/3 6/8/3 
f 6/8/3 8/10/4 7/9/4 
f 9/11/5 7/9/4 8/10/4 
f 8/10/4 10/12/5 9/11/5 
f 11/13/6 9/11/5 10/12/5 
f 10/12/5 12/14/6 11/13/6 
f 11/13/6 12/14/6 13/15/7 
f 13/15/7 14/16/7 11/13/6 
f 15/17/8 14/16/7 13/15/7 
f 13/15/7 16/18/8 15/17/8 
f 17/19/9 18/20/10 19/21/10 
f 19/21/10 20/22/9 17/19/9 
f 21/23/11 17/19/9 20/22/9 
f 20/22/9 22/24/11 21/23/11 
f 21/23/11 22/24/11 23/25/12 
f 23/25/12 24/26/12 21/23/11 
f 25/27/13 24/26/12 23/25/12 
f 23/25/12 26/28/13 25/27/13 
f 25/27/13 26/28/13 27/29/14 
f 27/29/14 28/30/14 25/27/13 
f 28/31/14 27/32/14 29/33/15 
f 29/33/15 30/34/15 28/31/14 
f 31/35/16 32/36/17 33/37/17 
f 33/37/17 34/38/16 31/35/16 
f 31/39/16 34/40/16 35/41/18 
f 35/41/18 36/42/18 31/39/16 
f 37/43/19 36/42/18 35/41/18 
f 35/41/18 38/44/19 37/43/19 
f 39/45/20 37/43/19 38/44/19 
f 38/44/19 40/46/20 39/45/20 
f 41/47/21 39/45/20 40/46/20 
f 40/46/20 42/48/21 41/47/21 
f 41/47/21 42/48/21 43/49/22 
f 43/49/22 44/50/22 41/47/21 
f 45/51/23 46/52/24 47/53/24 
f 47/53/24 48/54/23 45/51/23 
f 49/55/25 45/51/23 48/54/23 
f 48/54/23 50/56/25 49/55/25 
f 49/55/25 50/56/25 51/57/26 
f 51/57/26 52/58/26 49/55/25 
f 53/59/27 52/58/26 51/57/26 
f 51/57/26 54/60/27 53/59/27 
f 53/59/27 54/60/27 55/61/28 
f 55/61/28 56/62/28 53/59/27 
f 57/63/29 56/62/28 55/61/28 
f 55/61/28 58/64/29 57/63/29 
f 59/65/30 57/66/29 58/67/29 
f 58/67/29 60/68/30 59/65/30 
s 2
f 61/69/31 59/65/31 60/68/31 
f 60/68/31 62/70/31 61/69/31 
f 63/71/31 64/72/31 3/3/31 
f 3/3/31 2/2/31 63/71/31 
s 4
f 63/73/32 65/74/33 66/75/33 
f 66/75/33 64/76/32 63/73/32 
f 65/74/33 67/77/34 68/78/34 
f 68/78/34 66/75/33 65/74/33 
f 67/79/34 69/80/35 70/81/35 
f 70/81/35 68/82/34 67/79/34 
f 70/81/35 69/80/35 71/83/36 
f 71/83/36 72/84/36 70/81/35 
f 71/83/36 73/85/37 74/86/37 
f 74/86/37 72/84/36 71/83/36 
f 74/87/37 73/88/37 75/89/38 
f 75/89/38 76/90/38 74/87/37 
f 62/91/39 76/90/38 75/89/38 
f 75/89/38 61/92/39 62/91/39 
s 2
f 77/93/40 33/37/40 32/36/40 
f 32/36/40 78/94/40 77/93/40 
f 30/34/40 29/33/40 79/95/40 
f 79/95/40 80/96/40 30/34/40 
s 4
f 80/97/41 79/98/41 81/99/42 
f 81/99/42 82/100/42 80/97/41 
f 82/100/42 81/99/42 83/101/43 
f 83/101/43 84/102/43 82/100/42 
f 83/103/43 85/104/44 86/105/44 
f 86/105/44 84/106/43 83/103/43 
f 86/105/44 85/104/44 87/107/45 
f 87/107/45 88/108/45 86/105/44 
f 87/107/45 89/109/46 90/110/46 
f 90/110/46 88/108/45 87/107/45 
f 90/111/46 89/112/46 91/113/47 
f 91/113/47 92/114/47 90/111/46 
f 77/115/39 78/116/39 92/114/47 
f 92/114/47 91/113/47 77/115/39 
s 8
f 93/117/48 94/118/48 19/21/10 
f 19/21/10 18/20/10 93/117/48 
f 95/119/49 15/17/8 16/18/8 
f 16/18/8 96/120/49 95/119/49 
s 2
f 95/121/40 96/122/40 97/123/45 
f 97/123/45 98/124/45 95/121/40 
f 97/123/45 99/125/50 100/126/50 
f 100/126/50 98/124/45 97/123/45 
f 100/127/50 99/128/50 101/129/47 
f 101/129/47 102/130/47 100/127/50 
f 101/129/47 103/131/38 104/132/38 
f 104/132/38 102/130/47 101/129/47 
f 103/131/38 105/133/37 106/134/37 
f 106/134/37 104/132/38 103/131/38 
f 105/135/37 107/136/36 108/137/36 
f 108/137/36 106/138/37 105/135/37 
f 94/139/31 93/140/31 108/137/36 
f 108/137/36 107/136/36 94/139/31 
s 8
f 109/141/51 44/50/22 43/49/22 
f 43/49/22 110/142/51 109/141/51 
f 111/143/52 47/53/24 46/52/24 
f 46/52/24 112/144/52 111/143/52 
s 2
f 109/145/31 110/146/31 113/147/35 
f 113/147/35 114/148/35 109/145/31 
f 113/147/35 115/149/53 116/150/53 
f 116/150/53 114/148/35 113/147/35 
f 116/151/53 115/152/53 117/153/33 
f 117/153/33 118/154/33 116/151/53 
f 117/153/33 119/155/42 120/156/42 
f 120/156/42 118/154/33 117/153/33 
f 120/156/42 119/155/42 121/157/43 
f 121/157/43 122/158/43 120/156/42 
f 121/159/43 123/160/44 124/161/44 
f 124/161/44 122/162/43 121/159/43 
f 111/163/40 112/164/40 124/161/44 
f 124/161/44 123/160/44 111/163/40 
s 1
f 65/165/54 63/166/54 2/167/54 
f 65/165/54 2/167/54 1/168/54 
f 65/165/54 1/168/54 5/169/54 
f 65/165/54 5/169/54 7/170/54 
f 67/171/54 65/165/54 7/170/54 
f 67/171/54 7/170/54 9/172/54 
f 67/171/54 9/172/54 11/173/54 
f 15/174/54 95/175/54 98/176/54 
f 14/177/54 15/174/54 98/176/54 
f 14/177/54 98/176/54 100/178/54 
f 11/173/54 14/177/54 100/178/54 
f 67/171/54 11/173/54 100/178/54 
f 67/171/54 100/178/54 102/179/54 
f 69/180/54 67/171/54 102/179/54 
f 69/180/54 102/179/54 104/181/54 
f 71/182/54 69/180/54 104/181/54 
f 108/183/54 93/184/54 18/185/54 
f 106/186/54 108/183/54 18/185/54 
f 106/186/54 18/185/54 17/187/54 
f 106/186/54 17/187/54 21/188/54 
f 104/181/54 106/186/54 21/188/54 
f 30/189/54 80/190/54 82/191/54 
f 28/192/54 30/189/54 82/191/54 
f 25/193/54 28/192/54 82/191/54 
f 24/194/54 25/193/54 82/191/54 
f 24/194/54 82/191/54 84/195/54 
f 21/188/54 24/194/54 84/195/54 
f 104/181/54 21/188/54 84/195/54 
f 104/181/54 84/195/54 86/196/54 
f 104/181/54 86/196/54 88/197/54 
f 104/181/54 88/197/54 90/198/54 
f 92/199/54 78/200/54 32/201/54 
f 92/199/54 32/201/54 31/202/54 
f 92/199/54 31/202/54 36/203/54 
f 92/199/54 36/203/54 37/204/54 
f 90/198/54 92/199/54 37/204/54 
f 90/198/54 37/204/54 39/205/54 
f 104/181/54 90/198/54 39/205/54 
f 104/181/54 39/205/54 41/206/54 
f 44/207/54 109/208/54 114/209/54 
f 44/207/54 114/209/54 116/210/54 
f 41/206/54 44/207/54 116/210/54 
f 104/181/54 41/206/54 116/210/54 
f 104/181/54 116/210/54 118/211/54 
f 104/181/54 118/211/54 120/212/54 
f 71/182/54 104/181/54 120/212/54 
f 73/213/54 71/182/54 120/212/54 
f 73/213/54 120/212/54 122/214/54 
f 124/215/54 112/216/54 46/217/54 
f 124/215/54 46/217/54 45/218/54 
f 122/214/54 124/215/54 45/218/54 
f 122/214/54 45/218/54 49/219/54 
f 73/213/54 122/214/54 49/219/54 
f 73/213/54 49/219/54 52/220/54 
f 73/213/54 52/220/54 53/221/54 
f 75/222/54 73/213/54 53/221/54 
f 75/222/54 53/221/54 56/223/54 
f 75/222/54 56/223/54 57/224/54 
f 75/222/54 57/224/54 59/225/54 
f 75/222/54 59/225/54 61/226/54 
f 47/227/55 111/228/55 123/229/55 
f 48/230/55 47/227/55 123/229/55 
f 48/230/55 123/229/55 121/231/55 
f 50/232/55 48/230/55 121/231/55 
f 113/233/56 110/234/57 43/235/57 
f 115/236/57 113/233/56 43/235/57 
f 115/236/57 43/235/57 42/237/57 
f 33/238/55 77/239/55 91/240/55 
f 34/241/55 33/238/55 91/240/55 
f 35/242/55 34/241/55 91/240/55 
f 38/243/55 35/242/55 91/240/55 
f 38/243/55 91/240/55 89/244/57 
f 40/245/57 38/243/55 89/244/57 
f 81/246/57 79/247/57 29/248/57 
f 81/246/57 29/248/57 27/249/57 
f 81/246/57 27/249/57 26/250/55 
f 81/246/57 26/250/55 23/251/55 
f 83/252/55 81/246/57 23/251/55 
f 83/252/55 23/251/55 22/253/55 
f 19/254/55 94/255/55 107/256/55 
f 19/254/55 107/256/55 105/257/55 
f 20/258/55 19/254/55 105/257/55 
f 22/253/55 20/258/55 105/257/55 
f 22/253/55 105/257/55 103/259/57 
f 83/252/55 22/253/55 103/259/57 
f 85/260/55 83/252/55 103/259/57 
f 87/261/57 85/260/55 103/259/57 
f 89/244/57 87/261/57 103/259/57 
f 40/245/57 89/244/57 103/259/57 
f 42/237/57 40/245/57 103/259/57 
f 115/236/57 42/237/57 103/259/57 
f 117/262/55 115/236/57 103/259/57 
f 119/263/55 117/262/55 103/259/57 
f 97/264/56 96/265/55 16/266/56 
f 97/264/56 16/266/56 13/267/57 
f 99/268/56 97/264/56 13/267/57 
f 99/268/56 13/267/57 12/269/57 
f 3/270/55 64/271/55 66/272/55 
f 4/273/55 3/270/55 66/272/55 
f 6/274/55 4/273/55 66/272/55 
f 8/275/55 6/274/55 66/272/55 
f 8/275/55 66/272/55 68/276/57 
f 10/277/55 8/275/55 68/276/57 
f 12/269/57 10/277/55 68/276/57 
f 99/268/56 12/269/57 68/276/57 
f 101/278/56 99/268/56 68/276/57 
f 101/278/56 68/276/57 70/279/57 
f 103/259/57 101/278/56 70/279/57 
f 103/259/57 70/279/57 72/280/57 
f 119/263/55 103/259/57 72/280/57 
f 119/263/55 72/280/57 74/281/55 
f 121/231/55 119/263/55 74/281/55 
f 50/232/55 121/231/55 74/281/55 
f 51/282/55 50/232/55 74/281/55 
f 54/283/55 51/282/55 74/281/55 
f 54/283/55 74/281/55 76/284/57 
f 55/285/55 54/283/55 76/284/57 
f 58/286/57 55/285/55 76/284/57 
f 60/287/57 58/286/57 76/284/57 
f 60/287/57 76/284/57 62/288/57 
# 244 faces

