# 3ds Max Wavefront OBJ Exporter v0.97b - (c)2007 guruware
# File Created: 15.12.2020 23:19:23

mtllib CH-Beam.mtl

#
# object CH_Beam
#

v  -6.6802 -0.5771 1.9853
v  -6.6941 -1.0451 0.6962
v  6.6454 -1.0451 0.6962
v  6.6315 -0.5771 1.9853
v  -6.6941 -1.0451 -0.7351
v  6.6454 -1.0451 -0.7351
v  -6.6802 -0.5771 -2.0400
v  6.6315 -0.5771 -2.0400
v  -6.6802 0.5270 1.9853
v  6.6315 0.5270 1.9853
v  6.6454 0.9950 0.6962
v  -6.6941 0.9950 0.6962
v  6.6454 0.9950 -0.7351
v  -6.6941 0.9950 -0.7351
v  6.6315 0.5270 -2.0400
v  -6.6802 0.5270 -2.0400
# 16 vertices

vn -0.0000 -0.9400 0.3412
vn 0.0000 -0.9850 0.1727
vn -0.0000 -0.9850 0.1727
vn 0.0000 -0.9853 -0.1708
vn 0.0000 -0.9413 -0.3376
vn -0.0000 0.9400 0.3412
vn -0.0000 0.9850 0.1727
vn 0.0000 0.9850 0.1727
vn 0.0000 0.9853 -0.1708
vn 0.0000 0.9413 -0.3376
vn -0.0000 -0.0000 1.0000
vn 0.9999 -0.0000 0.0109
vn 1.0000 -0.0000 0.0048
vn 1.0000 0.0000 -0.0047
vn 0.9999 0.0000 -0.0108
vn 0.0000 0.0000 -1.0000
vn -0.9999 0.0000 -0.0108
vn -1.0000 0.0000 -0.0047
vn -1.0000 -0.0000 0.0048
vn -0.9999 -0.0000 0.0109
# 20 vertex normals

vt 1.0000 0.0000 0.0000
vt 1.0000 0.3333 0.0000
vt 0.0000 0.3333 0.0000
vt 0.0000 0.0000 0.0000
vt 1.0000 0.6667 0.0000
vt 0.0000 0.6667 0.0000
vt 1.0000 1.0000 0.0000
vt 0.0000 1.0000 0.0000
vt 0.3333 0.0000 0.0000
vt 0.3333 1.0000 0.0000
vt 0.6667 0.0000 0.0000
vt 0.6667 1.0000 0.0000
# 12 texture coords

o CH_Beam
g CH_Beam
usemtl CollisionHull
s 2
f 1/1/1 2/2/2 3/3/3 
f 3/3/3 4/4/1 1/1/1 
f 2/2/2 5/5/4 6/6/4 
f 6/6/4 3/3/3 2/2/2 
f 5/5/4 7/7/5 8/8/5 
f 8/8/5 6/6/4 5/5/4 
s 4
f 9/4/6 10/1/6 11/2/7 
f 11/2/7 12/3/8 9/4/6 
f 12/3/8 11/2/7 13/5/9 
f 13/5/9 14/6/9 12/3/8 
f 14/6/9 13/5/9 15/7/10 
f 15/7/10 16/8/10 14/6/9 
s 8
f 1/4/11 4/1/11 10/7/11 
f 10/7/11 9/8/11 1/4/11 
s 16
f 4/4/12 3/9/13 11/10/13 
f 11/10/13 10/8/12 4/4/12 
f 3/9/13 6/11/14 13/12/14 
f 13/12/14 11/10/13 3/9/13 
f 6/11/14 8/1/15 15/7/15 
f 15/7/15 13/12/14 6/11/14 
s 32
f 8/4/16 7/1/16 16/7/16 
f 16/7/16 15/8/16 8/4/16 
s 64
f 7/4/17 5/9/18 14/10/18 
f 14/10/18 16/8/17 7/4/17 
f 5/9/18 2/11/19 12/12/19 
f 12/12/19 14/10/18 5/9/18 
f 2/11/19 1/1/20 9/7/20 
f 9/7/20 12/12/19 2/11/19 
# 28 faces

