# 3ds Max Wavefront OBJ Exporter v0.97b - (c)2007 guruware
# File Created: 16.12.2020 12:40:44

mtllib CH-Corridor_Straight.mtl

#
# object CH_Corridor_Straight
#

v  5.1849 -0.0097 -0.0000
v  5.2366 -0.0097 -20.0000
v  3.7135 -3.6867 -20.0000
v  3.6618 -3.6867 -0.0000
v  0.0366 -5.2097 -20.0000
v  -0.0151 -5.2097 -0.0000
v  -3.6404 -3.6867 -20.0000
v  -3.6921 -3.6867 -0.0000
v  -5.1634 -0.0097 -20.0000
v  -5.2151 -0.0097 -0.0000
v  -3.6404 3.6673 -20.0000
v  -3.6921 3.6673 -0.0000
v  0.0366 5.1903 -20.0000
v  -0.0151 5.1903 -0.0000
v  3.7135 3.6673 -20.0000
v  3.6618 3.6673 -0.0000
# 16 vertices

vn -0.9002 0.3729 0.2250
vn -0.3809 0.9197 0.0952
vn 0.3809 0.9197 -0.0952
vn 0.9002 0.3729 -0.2250
vn 0.9002 -0.3729 -0.2250
vn 0.3809 -0.9197 -0.0952
vn -0.3809 -0.9197 0.0952
vn -0.9002 -0.3729 0.2250
# 8 vertex normals

vt 0.7500 0.0000 1.0000
vt 0.7500 1.0000 1.0000
vt 0.6250 1.0000 1.0000
vt 0.6250 0.0000 1.0000
vt 0.5000 1.0000 1.0000
vt 0.5000 0.0000 1.0000
vt 0.3750 1.0000 1.0000
vt 0.3750 0.0000 1.0000
vt 0.2500 1.0000 1.0000
vt 0.2500 0.0000 1.0000
vt 0.1250 1.0000 1.0000
vt 0.1250 0.0000 1.0000
vt 0.0000 1.0000 1.0000
vt 0.0000 0.0000 1.0000
vt -0.1250 1.0000 1.0000
vt -0.1250 0.0000 1.0000
vt 0.8750 0.0000 1.0000
vt 0.8750 1.0000 1.0000
# 18 texture coords

o CH_Corridor_Straight
g CH_Corridor_Straight
usemtl CollisionHull
s off
f 1/1/1 2/2/1 3/3/1 
f 3/3/1 4/4/1 1/1/1 
f 4/4/2 3/3/2 5/5/2 
f 5/5/2 6/6/2 4/4/2 
f 6/6/3 5/5/3 7/7/3 
f 7/7/3 8/8/3 6/6/3 
f 8/8/4 7/7/4 9/9/4 
f 9/9/4 10/10/4 8/8/4 
f 10/10/5 9/9/5 11/11/5 
f 11/11/5 12/12/5 10/10/5 
f 12/12/6 11/11/6 13/13/6 
f 13/13/6 14/14/6 12/12/6 
f 14/14/7 13/13/7 15/15/7 
f 15/15/7 16/16/7 14/14/7 
f 16/17/8 15/18/8 2/2/8 
f 2/2/8 1/1/8 16/17/8 
# 16 faces

