# 3ds Max Wavefront OBJ Exporter v0.97b - (c)2007 guruware
# File Created: 15.12.2020 23:19:08

mtllib CH-Cannon.mtl

#
# object CH_Cannon
#

v  -0.4438 -0.4494 4.6036
v  -0.4242 -0.4265 3.1729
v  0.3355 -0.4265 3.1729
v  0.3550 -0.4494 4.6036
v  -0.5671 -0.6838 1.7421
v  0.4783 -0.6838 1.7421
v  -0.6938 -0.9310 0.0620
v  0.6050 -0.9310 0.0620
v  -0.6447 -0.6838 -1.1195
v  0.5560 -0.6838 -1.1195
v  -0.4438 0.4826 4.6036
v  0.3550 0.4826 4.6036
v  0.3355 0.4597 3.1729
v  -0.4242 0.4597 3.1729
v  0.4783 0.7170 1.7421
v  -0.5671 0.7170 1.7421
v  0.6050 0.9642 0.0620
v  -0.6938 0.9642 0.0620
v  0.5560 0.7170 -1.1195
v  -0.6447 0.7170 -1.1195
# 20 vertices

vn 0.0000 -0.9999 -0.0159
vn 0.0000 -0.9965 0.0834
vn -0.0000 -0.9871 0.1604
vn 0.0000 -0.9871 0.1604
vn -0.0000 -0.9995 -0.0321
vn 0.0000 -0.9995 -0.0321
vn 0.0000 -0.9788 -0.2048
vn 0.0000 0.9999 -0.0159
vn 0.0000 0.9965 0.0834
vn 0.0000 0.9871 0.1604
vn -0.0000 0.9871 0.1604
vn 0.0000 0.9995 -0.0321
vn -0.0000 0.9995 -0.0321
vn 0.0000 0.9788 -0.2048
vn 0.0000 0.0000 1.0000
vn 0.9999 0.0000 -0.0137
vn 0.9990 0.0000 0.0456
vn 0.9963 0.0000 0.0860
vn 0.9998 0.0000 0.0182
vn 0.9991 0.0000 -0.0415
vn 0.0000 0.0000 -1.0000
vn -0.9991 0.0000 -0.0415
vn -0.9998 0.0000 0.0182
vn -0.9963 0.0000 0.0860
vn -0.9990 0.0000 0.0456
vn -0.9999 0.0000 -0.0137
# 26 vertex normals

vt 1.0000 0.0000 0.0000
vt 1.0000 0.2500 0.0000
vt 0.0000 0.2500 0.0000
vt 0.0000 0.0000 0.0000
vt 1.0000 0.5000 0.0000
vt 0.0000 0.5000 0.0000
vt 1.0000 0.7500 0.0000
vt 0.0000 0.7500 0.0000
vt 1.0000 1.0000 0.0000
vt 0.0000 1.0000 0.0000
vt 0.2500 0.0000 0.0000
vt 0.2500 1.0000 0.0000
vt 0.5000 0.0000 0.0000
vt 0.5000 1.0000 0.0000
vt 0.7500 0.0000 0.0000
vt 0.7500 1.0000 0.0000
# 16 texture coords

o CH_Cannon
g CH_Cannon
usemtl CollisionHull
s 2
f 1/1/1 2/2/2 3/3/2 
f 3/3/2 4/4/1 1/1/1 
f 2/2/2 5/5/3 6/6/4 
f 6/6/4 3/3/2 2/2/2 
f 5/5/3 7/7/5 8/8/6 
f 8/8/6 6/6/4 5/5/3 
f 7/7/5 9/9/7 10/10/7 
f 10/10/7 8/8/6 7/7/5 
s 4
f 11/4/8 12/1/8 13/2/9 
f 13/2/9 14/3/9 11/4/8 
f 14/3/9 13/2/9 15/5/10 
f 15/5/10 16/6/11 14/3/9 
f 16/6/11 15/5/10 17/7/12 
f 17/7/12 18/8/13 16/6/11 
f 18/8/13 17/7/12 19/9/14 
f 19/9/14 20/10/14 18/8/13 
s 8
f 1/4/15 4/1/15 12/9/15 
f 12/9/15 11/10/15 1/4/15 
s 16
f 4/4/16 3/11/17 13/12/17 
f 13/12/17 12/10/16 4/4/16 
f 3/11/17 6/13/18 15/14/18 
f 15/14/18 13/12/17 3/11/17 
f 6/13/18 8/15/19 17/16/19 
f 17/16/19 15/14/18 6/13/18 
f 8/15/19 10/1/20 19/9/20 
f 19/9/20 17/16/19 8/15/19 
s 32
f 10/4/21 9/1/21 20/9/21 
f 20/9/21 19/10/21 10/4/21 
s 64
f 9/4/22 7/11/23 18/12/23 
f 18/12/23 20/10/22 9/4/22 
f 7/11/23 5/13/24 16/14/24 
f 16/14/24 18/12/23 7/11/23 
f 5/13/24 2/15/25 14/16/25 
f 14/16/25 16/14/24 5/13/24 
f 2/15/25 1/1/26 11/9/26 
f 11/9/26 14/16/25 2/15/25 
# 36 faces

